<mxfile host="app.diagrams.net" agent="Mozilla/5.0 (Windows NT 10.0; Win64; x64) AppleWebKit/537.36 (KHTML, like Gecko) Chrome/131.0.0.0 Safari/537.36" version="25.0.3">
  <diagram name="Page-1" id="iZ-bohH4t8A6g17-vcT4">
    <mxGraphModel dx="1687" dy="918" grid="1" gridSize="10" guides="1" tooltips="1" connect="1" arrows="1" fold="1" page="1" pageScale="1" pageWidth="850" pageHeight="1100" math="0" shadow="0">
      <root>
        <mxCell id="0" />
        <mxCell id="1" parent="0" />
        <mxCell id="BgIHbN9h5vp_AabJdUFD-1" value="&lt;font style=&quot;font-size: 24px;&quot;&gt;Start&lt;/font&gt;" style="rounded=1;whiteSpace=wrap;html=1;" vertex="1" parent="1">
          <mxGeometry x="333.12" y="130" width="131.25" height="70" as="geometry" />
        </mxCell>
        <mxCell id="BgIHbN9h5vp_AabJdUFD-2" value="" style="endArrow=classic;html=1;rounded=0;entryX=0.5;entryY=0;entryDx=0;entryDy=0;exitX=0.5;exitY=1;exitDx=0;exitDy=0;" edge="1" parent="1" source="BgIHbN9h5vp_AabJdUFD-1" target="BgIHbN9h5vp_AabJdUFD-4">
          <mxGeometry width="50" height="50" relative="1" as="geometry">
            <mxPoint x="398" y="150" as="sourcePoint" />
            <mxPoint x="393" y="180" as="targetPoint" />
          </mxGeometry>
        </mxCell>
        <mxCell id="BgIHbN9h5vp_AabJdUFD-4" value="&lt;font style=&quot;font-size: 14px;&quot;&gt;Generate a random word&lt;/font&gt;" style="rounded=1;whiteSpace=wrap;html=1;" vertex="1" parent="1">
          <mxGeometry x="328.75" y="240" width="142.5" height="70" as="geometry" />
        </mxCell>
        <mxCell id="BgIHbN9h5vp_AabJdUFD-5" value="&lt;font style=&quot;font-size: 14px;&quot;&gt;Generate as many blank as letters in word&lt;/font&gt;" style="rounded=1;whiteSpace=wrap;html=1;" vertex="1" parent="1">
          <mxGeometry x="326.25" y="350" width="145" height="90" as="geometry" />
        </mxCell>
        <mxCell id="BgIHbN9h5vp_AabJdUFD-6" value="Ask the user to guess a letter" style="rounded=1;whiteSpace=wrap;html=1;" vertex="1" parent="1">
          <mxGeometry x="320" y="500" width="160" height="60" as="geometry" />
        </mxCell>
        <mxCell id="BgIHbN9h5vp_AabJdUFD-9" value="" style="endArrow=classic;html=1;rounded=0;exitX=0.483;exitY=1;exitDx=0;exitDy=0;exitPerimeter=0;entryX=0.5;entryY=0;entryDx=0;entryDy=0;" edge="1" parent="1" source="BgIHbN9h5vp_AabJdUFD-4" target="BgIHbN9h5vp_AabJdUFD-5">
          <mxGeometry width="50" height="50" relative="1" as="geometry">
            <mxPoint x="350" y="410" as="sourcePoint" />
            <mxPoint x="400" y="360" as="targetPoint" />
          </mxGeometry>
        </mxCell>
        <mxCell id="BgIHbN9h5vp_AabJdUFD-10" value="" style="endArrow=classic;html=1;rounded=0;exitX=0.483;exitY=1;exitDx=0;exitDy=0;exitPerimeter=0;entryX=0.5;entryY=0;entryDx=0;entryDy=0;" edge="1" parent="1">
          <mxGeometry width="50" height="50" relative="1" as="geometry">
            <mxPoint x="397" y="450" as="sourcePoint" />
            <mxPoint x="398" y="500" as="targetPoint" />
          </mxGeometry>
        </mxCell>
        <mxCell id="BgIHbN9h5vp_AabJdUFD-16" style="edgeStyle=orthogonalEdgeStyle;rounded=0;orthogonalLoop=1;jettySize=auto;html=1;exitX=0;exitY=0.5;exitDx=0;exitDy=0;" edge="1" parent="1" source="BgIHbN9h5vp_AabJdUFD-11" target="BgIHbN9h5vp_AabJdUFD-12">
          <mxGeometry relative="1" as="geometry" />
        </mxCell>
        <mxCell id="BgIHbN9h5vp_AabJdUFD-11" value="Is the guessed letter &lt;br&gt;in the word?" style="rhombus;whiteSpace=wrap;html=1;" vertex="1" parent="1">
          <mxGeometry x="310" y="610" width="180" height="110" as="geometry" />
        </mxCell>
        <mxCell id="BgIHbN9h5vp_AabJdUFD-23" style="edgeStyle=orthogonalEdgeStyle;rounded=0;orthogonalLoop=1;jettySize=auto;html=1;exitX=0.5;exitY=1;exitDx=0;exitDy=0;entryX=0.5;entryY=0;entryDx=0;entryDy=0;" edge="1" parent="1" source="BgIHbN9h5vp_AabJdUFD-12" target="BgIHbN9h5vp_AabJdUFD-21">
          <mxGeometry relative="1" as="geometry" />
        </mxCell>
        <mxCell id="BgIHbN9h5vp_AabJdUFD-12" value="Replace the blank with the letter" style="rounded=1;whiteSpace=wrap;html=1;" vertex="1" parent="1">
          <mxGeometry x="190" y="750" width="120" height="60" as="geometry" />
        </mxCell>
        <mxCell id="BgIHbN9h5vp_AabJdUFD-13" value="Lose a life" style="rounded=1;whiteSpace=wrap;html=1;" vertex="1" parent="1">
          <mxGeometry x="490" y="750" width="120" height="60" as="geometry" />
        </mxCell>
        <mxCell id="BgIHbN9h5vp_AabJdUFD-14" value="" style="endArrow=classic;html=1;rounded=0;exitX=1;exitY=0.5;exitDx=0;exitDy=0;entryX=0.5;entryY=0;entryDx=0;entryDy=0;" edge="1" parent="1" source="BgIHbN9h5vp_AabJdUFD-11" target="BgIHbN9h5vp_AabJdUFD-13">
          <mxGeometry width="50" height="50" relative="1" as="geometry">
            <mxPoint x="390" y="750" as="sourcePoint" />
            <mxPoint x="440" y="700" as="targetPoint" />
            <Array as="points">
              <mxPoint x="550" y="665" />
            </Array>
          </mxGeometry>
        </mxCell>
        <mxCell id="BgIHbN9h5vp_AabJdUFD-17" value="Yes" style="text;html=1;align=center;verticalAlign=middle;resizable=0;points=[];autosize=1;strokeColor=none;fillColor=none;" vertex="1" parent="1">
          <mxGeometry x="210" y="638" width="40" height="30" as="geometry" />
        </mxCell>
        <mxCell id="BgIHbN9h5vp_AabJdUFD-18" value="No" style="text;html=1;align=center;verticalAlign=middle;resizable=0;points=[];autosize=1;strokeColor=none;fillColor=none;" vertex="1" parent="1">
          <mxGeometry x="540" y="638" width="40" height="30" as="geometry" />
        </mxCell>
        <mxCell id="BgIHbN9h5vp_AabJdUFD-19" value="" style="endArrow=classic;html=1;rounded=0;exitX=0.483;exitY=1;exitDx=0;exitDy=0;exitPerimeter=0;entryX=0.5;entryY=0;entryDx=0;entryDy=0;" edge="1" parent="1">
          <mxGeometry width="50" height="50" relative="1" as="geometry">
            <mxPoint x="399.5" y="560" as="sourcePoint" />
            <mxPoint x="400.5" y="610" as="targetPoint" />
          </mxGeometry>
        </mxCell>
        <mxCell id="BgIHbN9h5vp_AabJdUFD-33" style="edgeStyle=orthogonalEdgeStyle;rounded=0;orthogonalLoop=1;jettySize=auto;html=1;exitX=0.5;exitY=1;exitDx=0;exitDy=0;entryX=0.5;entryY=0;entryDx=0;entryDy=0;" edge="1" parent="1" source="BgIHbN9h5vp_AabJdUFD-20" target="BgIHbN9h5vp_AabJdUFD-25">
          <mxGeometry relative="1" as="geometry" />
        </mxCell>
        <mxCell id="BgIHbN9h5vp_AabJdUFD-20" value="&lt;font style=&quot;font-size: 11px;&quot;&gt;Have they run&amp;nbsp;&lt;/font&gt;&lt;div&gt;&lt;font style=&quot;font-size: 11px;&quot;&gt;out of lives?&lt;/font&gt;&lt;/div&gt;" style="rhombus;whiteSpace=wrap;html=1;" vertex="1" parent="1">
          <mxGeometry x="495" y="860" width="110" height="80" as="geometry" />
        </mxCell>
        <mxCell id="BgIHbN9h5vp_AabJdUFD-27" style="edgeStyle=orthogonalEdgeStyle;rounded=0;orthogonalLoop=1;jettySize=auto;html=1;exitX=0;exitY=0.5;exitDx=0;exitDy=0;entryX=0;entryY=0.5;entryDx=0;entryDy=0;" edge="1" parent="1" source="BgIHbN9h5vp_AabJdUFD-21" target="BgIHbN9h5vp_AabJdUFD-6">
          <mxGeometry relative="1" as="geometry">
            <Array as="points">
              <mxPoint x="150" y="900" />
              <mxPoint x="150" y="530" />
            </Array>
          </mxGeometry>
        </mxCell>
        <mxCell id="BgIHbN9h5vp_AabJdUFD-36" style="edgeStyle=orthogonalEdgeStyle;rounded=0;orthogonalLoop=1;jettySize=auto;html=1;exitX=0.5;exitY=1;exitDx=0;exitDy=0;entryX=0.5;entryY=0;entryDx=0;entryDy=0;" edge="1" parent="1" source="BgIHbN9h5vp_AabJdUFD-21" target="BgIHbN9h5vp_AabJdUFD-25">
          <mxGeometry relative="1" as="geometry" />
        </mxCell>
        <mxCell id="BgIHbN9h5vp_AabJdUFD-21" value="&lt;span style=&quot;font-size: 11px;&quot;&gt;Are all the&lt;/span&gt;&lt;div&gt;&lt;span style=&quot;font-size: 11px;&quot;&gt;&amp;nbsp;blanks filled?&lt;/span&gt;&lt;/div&gt;" style="rhombus;whiteSpace=wrap;html=1;" vertex="1" parent="1">
          <mxGeometry x="195" y="860" width="110" height="80" as="geometry" />
        </mxCell>
        <mxCell id="BgIHbN9h5vp_AabJdUFD-24" value="" style="endArrow=classic;html=1;rounded=0;exitX=0.5;exitY=1;exitDx=0;exitDy=0;entryX=0.5;entryY=0;entryDx=0;entryDy=0;" edge="1" parent="1" source="BgIHbN9h5vp_AabJdUFD-13" target="BgIHbN9h5vp_AabJdUFD-20">
          <mxGeometry width="50" height="50" relative="1" as="geometry">
            <mxPoint x="390" y="960" as="sourcePoint" />
            <mxPoint x="440" y="910" as="targetPoint" />
          </mxGeometry>
        </mxCell>
        <mxCell id="BgIHbN9h5vp_AabJdUFD-25" value="GAME OVER" style="rounded=1;whiteSpace=wrap;html=1;" vertex="1" parent="1">
          <mxGeometry x="340" y="1000" width="120" height="60" as="geometry" />
        </mxCell>
        <mxCell id="BgIHbN9h5vp_AabJdUFD-26" value="" style="endArrow=classic;html=1;rounded=0;entryX=1;entryY=0.5;entryDx=0;entryDy=0;" edge="1" parent="1" target="BgIHbN9h5vp_AabJdUFD-6">
          <mxGeometry width="50" height="50" relative="1" as="geometry">
            <mxPoint x="605" y="900" as="sourcePoint" />
            <mxPoint x="655" y="850" as="targetPoint" />
            <Array as="points">
              <mxPoint x="650" y="900" />
              <mxPoint x="650" y="530" />
            </Array>
          </mxGeometry>
        </mxCell>
        <mxCell id="BgIHbN9h5vp_AabJdUFD-28" value="Yes" style="text;html=1;align=center;verticalAlign=middle;resizable=0;points=[];autosize=1;strokeColor=none;fillColor=none;" vertex="1" parent="1">
          <mxGeometry x="265" y="930" width="40" height="30" as="geometry" />
        </mxCell>
        <mxCell id="BgIHbN9h5vp_AabJdUFD-29" value="No" style="text;html=1;align=center;verticalAlign=middle;resizable=0;points=[];autosize=1;strokeColor=none;fillColor=none;" vertex="1" parent="1">
          <mxGeometry x="640" y="900" width="40" height="30" as="geometry" />
        </mxCell>
        <mxCell id="BgIHbN9h5vp_AabJdUFD-30" value="No" style="text;html=1;align=center;verticalAlign=middle;resizable=0;points=[];autosize=1;strokeColor=none;fillColor=none;" vertex="1" parent="1">
          <mxGeometry x="110" y="900" width="40" height="30" as="geometry" />
        </mxCell>
        <mxCell id="BgIHbN9h5vp_AabJdUFD-31" value="Yes" style="text;html=1;align=center;verticalAlign=middle;resizable=0;points=[];autosize=1;strokeColor=none;fillColor=none;" vertex="1" parent="1">
          <mxGeometry x="495" y="930" width="40" height="30" as="geometry" />
        </mxCell>
      </root>
    </mxGraphModel>
  </diagram>
</mxfile>
